<svg width="16" height="19" viewBox="0 0 16 19" fill="none" xmlns="http://www.w3.org/2000/svg">
<g id="carbon:notification-new" clip-path="url(#clip0_1_480)">
<g id="Vector">
<path d="M12.7923 10.2845V8.82986H11.8332V10.5083C11.8315 10.5819 11.8435 10.6549 11.8683 10.7225C11.8931 10.7902 11.9302 10.8507 11.977 10.9L13.2718 12.4106V13.3058H2.72152V12.4106L4.01633 10.9C4.06314 10.8507 4.10024 10.7902 4.12507 10.7225C4.14991 10.6549 4.16189 10.5819 4.1602 10.5083V7.71089C4.1602 6.52381 4.5644 5.38534 5.28388 4.54595C6.00336 3.70656 6.97918 3.23499 7.99668 3.23499C8.67126 3.23514 9.33354 3.44569 9.91493 3.84483V2.5636C9.45905 2.32534 8.97328 2.17422 8.47624 2.11601V0.99704H7.51712V2.11601C6.33628 2.27307 5.24549 2.92872 4.45043 3.95935C3.65538 4.98998 3.21099 6.32436 3.20108 7.71089V10.2845L1.90626 11.7951C1.85946 11.8444 1.82236 11.905 1.79752 11.9726C1.77269 12.0402 1.7607 12.1133 1.7624 12.1868V13.8652C1.75816 13.94 1.76766 14.0149 1.79026 14.0851C1.81286 14.1552 1.84804 14.2189 1.89345 14.2718C1.93885 14.3248 1.99343 14.3659 2.05354 14.3922C2.11364 14.4186 2.17788 14.4297 2.24196 14.4247H5.59888C5.59888 15.1667 5.85151 15.8782 6.30118 16.4028C6.75086 16.9274 7.36075 17.2222 7.99668 17.2222C8.63262 17.2222 9.24251 16.9274 9.69219 16.4028C10.1419 15.8782 10.3945 15.1667 10.3945 14.4247H13.7514C13.8155 14.4297 13.8797 14.4186 13.9398 14.3922C13.9999 14.3659 14.0545 14.3248 14.0999 14.2718C14.1453 14.2189 14.1805 14.1552 14.2031 14.0851C14.2257 14.0149 14.2352 13.94 14.231 13.8652V12.1868C14.2327 12.1133 14.2207 12.0402 14.1958 11.9726C14.171 11.905 14.1339 11.8444 14.0871 11.7951L12.7923 10.2845ZM7.99668 16.1032C7.61512 16.1032 7.24919 15.9264 6.97938 15.6116C6.70958 15.2968 6.558 14.8699 6.558 14.4247H9.43537C9.43537 14.8699 9.28379 15.2968 9.01399 15.6116C8.74418 15.9264 8.37825 16.1032 7.99668 16.1032Z" fill="#333333"/>
<path d="M12.7923 10.2845V8.82986H11.8332V10.5083C11.8315 10.5819 11.8435 10.6549 11.8683 10.7225C11.8931 10.7902 11.9302 10.8507 11.977 10.9L13.2718 12.4106V13.3058H2.72152V12.4106L4.01633 10.9C4.06314 10.8507 4.10024 10.7902 4.12507 10.7225C4.14991 10.6549 4.16189 10.5819 4.1602 10.5083V7.71089C4.1602 6.52381 4.5644 5.38534 5.28388 4.54595C6.00336 3.70656 6.97918 3.23499 7.99668 3.23499C8.67126 3.23514 9.33354 3.44569 9.91493 3.84483V2.5636C9.45905 2.32534 8.97328 2.17422 8.47624 2.11601V0.99704H7.51712V2.11601C6.33628 2.27307 5.24549 2.92872 4.45043 3.95935C3.65538 4.98998 3.21099 6.32436 3.20108 7.71089V10.2845L1.90626 11.7951C1.85946 11.8444 1.82236 11.905 1.79752 11.9726C1.77269 12.0402 1.7607 12.1133 1.7624 12.1868V13.8652C1.75816 13.94 1.76766 14.0149 1.79026 14.0851C1.81286 14.1552 1.84804 14.2189 1.89345 14.2718C1.93885 14.3248 1.99343 14.3659 2.05354 14.3922C2.11364 14.4186 2.17788 14.4297 2.24196 14.4247H5.59888C5.59888 15.1667 5.85151 15.8782 6.30118 16.4028C6.75086 16.9274 7.36075 17.2222 7.99668 17.2222C8.63262 17.2222 9.24251 16.9274 9.69219 16.4028C10.1419 15.8782 10.3945 15.1667 10.3945 14.4247H13.7514C13.8155 14.4297 13.8797 14.4186 13.9398 14.3922C13.9999 14.3659 14.0545 14.3248 14.0999 14.2718C14.1453 14.2189 14.1805 14.1552 14.2031 14.0851C14.2257 14.0149 14.2352 13.94 14.231 13.8652V12.1868C14.2327 12.1133 14.2207 12.0402 14.1958 11.9726C14.171 11.905 14.1339 11.8444 14.0871 11.7951L12.7923 10.2845ZM7.99668 16.1032C7.61512 16.1032 7.24919 15.9264 6.97938 15.6116C6.70958 15.2968 6.558 14.8699 6.558 14.4247H9.43537C9.43537 14.8699 9.28379 15.2968 9.01399 15.6116C8.74418 15.9264 8.37825 16.1032 7.99668 16.1032Z" fill="#333333"/>
</g>
<path id="Vector_2" d="M12.5775 7.15125C13.7555 7.15125 14.7105 6.14929 14.7105 4.9133C14.7105 3.67732 13.7555 2.67535 12.5775 2.67535C11.3995 2.67535 10.4446 3.67732 10.4446 4.9133C10.4446 6.14929 11.3995 7.15125 12.5775 7.15125Z" fill="#4155F8"/>
</g>
<defs>
<clipPath id="clip0_1_480">
<rect width="15.0081" height="18.0097" fill="white" transform="translate(0.495972 0.197296)"/>
</clipPath>
</defs>
</svg>
