<svg width="25" height="24" viewBox="0 0 25 24" fill="none" xmlns="http://www.w3.org/2000/svg">
<g id="ei:search">
<path id="Vector" d="M11.9775 17.28C8.52149 17.28 5.73749 14.496 5.73749 11.04C5.73749 7.58399 8.52149 4.79999 11.9775 4.79999C15.4335 4.79999 18.2175 7.58399 18.2175 11.04C18.2175 14.496 15.4335 17.28 11.9775 17.28ZM11.9775 5.75999C9.04949 5.75999 6.69749 8.11199 6.69749 11.04C6.69749 13.968 9.04949 16.32 11.9775 16.32C14.9055 16.32 17.2575 13.968 17.2575 11.04C17.2575 8.11199 14.9055 5.75999 11.9775 5.75999Z" fill="#999999"/>
<path id="Vector_2" d="M16.6249 15.0081L20.9353 19.3185L20.2565 19.9973L15.9461 15.6869L16.6249 15.0081Z" fill="#999999"/>
</g>
</svg>
