<svg width="26" height="26" viewBox="0 0 26 26" fill="none" xmlns="http://www.w3.org/2000/svg">
<g id="ei:search">
<path id="Vector" d="M3.4 10.24C3.4 14.0274 6.45263 17.08 10.24 17.08C14.0274 17.08 17.08 14.0274 17.08 10.24C17.08 6.45263 14.0274 3.4 10.24 3.4C6.45263 3.4 3.4 6.45263 3.4 10.24ZM5.56 10.24C5.56 7.64337 7.64337 5.56 10.24 5.56C12.8366 5.56 14.92 7.64337 14.92 10.24C14.92 12.8366 12.8366 14.92 10.24 14.92C7.64337 14.92 5.56 12.8366 5.56 10.24Z" fill="black" stroke="black" stroke-width="1.2"/>
<path id="Vector_2" d="M15.7128 13.7757L15.2885 13.3515L14.8643 13.7757L13.7759 14.8641L13.3517 15.2883L13.7759 15.7126L20.6876 22.6243L21.1119 23.0485L21.5361 22.6243L22.6245 21.536L23.0487 21.1117L22.6245 20.6874L15.7128 13.7757Z" fill="black" stroke="black" stroke-width="1.2"/>
</g>
</svg>
